<?xml version="1.0"?>
<svg fill="#909090" xmlns="http://www.w3.org/2000/svg" xmlns:xlink="http://www.w3.org/1999/xlink" xmlns:svgjs="http://svgjs.com/svgjs" version="1.1" width="512" height="512" x="0" y="0" viewBox="0 0 512 512" style="enable-background:new 0 0 512 512" xml:space="preserve"><g><g xmlns="http://www.w3.org/2000/svg"><path d="m472.931 238.91-201.926-104.014v-22.284c25.549-6.92 43.262-30.944 42.253-57.529-1.129-29.734-25.306-53.911-55.041-55.041-32.611-1.235-59.517 24.767-59.517 57.258 0 8.287 6.718 15.005 15.005 15.005s15.005-6.718 15.005-15.005c0-15.433 12.767-27.859 28.369-27.27 14.149.537 25.654 12.042 26.191 26.191.487 12.844-8.172 24.43-20.588 27.548-12.769 3.206-21.687 14.566-21.687 27.626v23.509l-201.936 104.186c-15.385 7.923-24.938 23.598-24.938 40.893 0 25.446 20.581 46.025 46.025 46.025h45.195v-30.01h-45.196c-8.787 0-16.015-7.097-16.015-16.015 0-6.012 3.321-11.464 8.683-14.225l203.187-104.824 203.187 104.654c5.352 2.761 8.683 8.223 8.683 14.245 0 9.258-7.4 16.165-16.015 16.165h-45.195v30.01h45.195c24.978 0 46.025-20.187 46.025-46.175 0-17.305-9.553-32.98-24.949-40.923z" fill="#ffffff" data-original="#000000" style=""/><path d="m135.35 501.997c0 5.525 4.479 10.003 10.003 10.003h221.293c5.525 0 10.003-4.479 10.003-10.003v-54.448h-241.299z" fill="#ffffff" data-original="#000000" style=""/><path d="m366.646 270.69h-221.292c-5.525 0-10.003 4.479-10.003 10.003v136.845h241.299v-136.844c0-5.525-4.479-10.004-10.004-10.004z" fill="#ffffff" data-original="#000000" style=""/></g></g></svg>
